<?xml version="1.0" encoding="utf-8"?>
<!-- Generator: Adobe Illustrator 27.5.0, SVG Export Plug-In . SVG Version: 6.00 Build 0)  -->
<svg version="1.1" id="BASE" xmlns="http://www.w3.org/2000/svg" xmlns:xlink="http://www.w3.org/1999/xlink" x="0px" y="0px"
	 viewBox="0 0 2196 2050" style="enable-background:new 0 0 2196 2050;" xml:space="preserve">
<g>
	<path style="fill:#593088;" d="M2043.254,945.918v-0.001l-2.228-5.681l-18.3-46.687l-81.761-208.606
		c-10.593-30.938-35.346-56.546-68.996-66.887L518.268,202.042c-55.809-17.151-114.956,14.188-132.106,69.997l-235.077,764.935
		c-7.666,24.946-5.643,50.558,3.922,72.789l97.724,247.729c1.131,4.226,2.535,8.363,4.181,12.396
		c1.35,3.318,2.866,6.567,4.544,9.745l0.197,0.49l0.007,0.004v0l0.081,0.04c10.951,20.45,28.557,37.339,50.994,47.065
		c3.577,1.555,7.276,2.93,11.091,4.108l346.237,106.392l21.946,6.743l41.693,12.812l7.644,2.349l936.172,287.701
		c3.926,1.206,7.867,2.173,11.811,2.908c35.242,6.581,70.54-5.352,94.624-29.813c11.538-11.71,20.508-26.292,25.671-43.092
		l46.892-152.585l4.45-14.475l183.735-597.872c0.866-2.82,1.61-5.648,2.23-8.48C2051.3,984.048,2049.714,964.037,2043.254,945.918z"
		/>
	<g>
		<g>
			<g>
				<path style="fill:#4A2670;" d="M2043.254,945.918v-0.001l-2.228-5.681l-18.3-46.687l-81.761-208.606
					c0.017,0.049,0.033,0.097,0.049,0.145c6.931,20.337,7.746,42.967,0.952,65.074l-191.548,623.299l-43.527,141.636
					c-17.151,55.809-76.297,87.148-132.106,69.997l-71.386-21.938l-521.252-160.188l-59.205-18.195l-157.63-48.442l-171.284-52.638
					l-164.789-50.642l-109.662-33.701l-98.495-30.269c-30.818-9.471-54.173-31.747-66.023-59.196
					c-0.018-0.04-0.034-0.081-0.052-0.121l97.724,247.729c1.131,4.226,2.535,8.363,4.181,12.396c1.35,3.318,2.866,6.567,4.544,9.745
					l0.197,0.49l0.007,0.004v0l0.081,0.04c10.951,20.45,28.557,37.339,50.994,47.065c3.577,1.555,7.276,2.93,11.091,4.108
					l88.081,27.066l90.038,27.667l168.118,51.66l21.946,6.743l41.693,12.812l7.644,2.349l72.38,22.241l3.636,1.117l-0.971-0.298
					v0.003l161.942,49.767c0.002-0.003,0.002-0.005,0.003-0.007l-0.748-0.23l51.301,15.763l1.937,0.595l-1.937-0.595
					c0,0.003,0.001,0.007,0.001,0.01l648.628,199.334c3.926,1.206,7.867,2.173,11.811,2.908c35.242,6.581,70.54-5.352,94.624-29.813
					c11.538-11.71,20.508-26.292,25.671-43.092l46.892-152.585l4.45-14.475l183.735-597.872c0.866-2.82,1.61-5.648,2.23-8.48
					C2051.3,984.048,2049.714,964.037,2043.254,945.918z"/>
			</g>
		</g>
		<path style="fill:#452368;" d="M1750.417,1373.461l-43.527,141.636c-17.151,55.809-76.297,87.148-132.106,69.997l-71.386-21.938
			c32.012,95.03,61.56,182.753,86.661,257.274l87.465,26.905c3.924,1.207,7.862,2.174,11.804,2.91
			c35.242,6.581,70.54-5.352,94.624-29.813c11.532-11.712,20.495-26.296,25.649-43.098l46.913-152.579l4.45-14.475l-0.001-0.002
			L1750.417,1373.461z"/>
		<path style="fill:#D50075;" d="M379.039,891.755c11.632,16.774,28.766,29.913,49.793,36.382l78.463,24.113l199.483,61.304
			l154.786,47.568l56.178,17.265l471.106,144.778l149.12,45.827c9.215,2.833,18.56,4.187,27.748,4.186
			c40.364,0.005,77.686-26.088,90.171-66.666l6.578-21.467l112.764-368.05c1.252-4.091-1.047-8.422-5.137-9.675
			c-4.09-1.253-8.422,1.047-9.674,5.137h-0.001l-107.734,351.632l-11.605,37.878c-10.409,33.916-41.652,55.713-75.36,55.718
			c-7.669,0-15.466-1.127-23.198-3.502l-159.764-49.098l-468.388-143.943l-55.768-17.138l-154.658-47.529l-200.899-61.739
			l-69.661-21.408c-22.072-6.774-39.008-22.37-48.15-41.724l-0.013-0.026c-4.9-10.383-7.559-21.847-7.562-33.612
			c0.001-7.67,1.126-15.465,3.504-23.195l119.342-389.519c1.252-4.09-1.048-8.422-5.138-9.675c-4.09-1.253-8.422,1.046-9.673,5.137
			L366.35,810.224c-2.834,9.211-4.186,18.556-4.185,27.742c-0.004,19.441,6.051,38.175,16.858,53.769
			C379.028,891.743,379.033,891.749,379.039,891.755z"/>
		<circle style="fill:#D50075;" cx="490.351" cy="277.722" r="34.618"/>
		<path style="fill:#D50075;" d="M204.023,1091.903c6.222,9.204,16.756,15.254,28.701,15.254c17.562,0,32.07-13.078,34.316-30.027
			c0-0.001,0.001-0.003,0.001-0.004c0.198-1.501,0.303-3.032,0.303-4.587c0-19.12-15.5-34.619-34.619-34.619
			c-19.119,0-34.619,15.499-34.619,34.619c0,7.17,2.18,13.831,5.913,19.356C204.019,1091.898,204.022,1091.901,204.023,1091.903z"/>
		<path style="fill:#D50075;" d="M1834.353,721.526c6.344,7.199,15.631,11.742,25.981,11.742c19.119,0,34.618-15.5,34.618-34.619
			c0-1.104-0.054-2.195-0.155-3.272v-0.003c-1.651-17.583-16.449-31.344-34.463-31.344c-19.12,0-34.619,15.5-34.619,34.619
			C1825.714,707.419,1828.977,715.426,1834.353,721.526L1834.353,721.526z"/>
		<path style="fill:#D50075;" d="M1631.503,1468.941c-19.12,0-34.62,15.499-34.62,34.618c0,19.12,15.5,34.619,34.62,34.619
			c19.118,0,34.618-15.499,34.618-34.619C1666.121,1484.44,1650.621,1468.941,1631.503,1468.941z"/>
		<path style="fill:#D50075;" d="M455.732,1121.191c-19.12,0-34.62,15.499-34.62,34.619c0,19.119,15.5,34.619,34.62,34.619
			c19.118,0,34.618-15.5,34.618-34.619C490.351,1136.69,474.85,1121.191,455.732,1121.191z"/>
		<path style="fill:#D50075;" d="M1376.553,1411.731c-19.12,0-34.62,15.499-34.62,34.619c0,19.119,15.5,34.618,34.62,34.618
			c19.118,0,34.618-15.499,34.618-34.618C1411.171,1427.23,1395.671,1411.731,1376.553,1411.731z"/>
		<path style="fill:#D50075;" d="M970.248,1194.157c0-13.52-10.96-24.479-24.479-24.479c-3.431,0-6.695,0.706-9.659,1.98
			c-8.715,3.747-14.82,12.409-14.82,22.498c0,13.403,10.772,24.287,24.13,24.474c0.116,0.002,0.232,0.005,0.35,0.005
			C959.288,1218.636,970.248,1207.676,970.248,1194.157z"/>
		<g>
			<path style="fill:#D50075;" d="M1686.423,679.987L637.012,357.486c-43.264-13.296-89.115,10.999-102.411,54.262l-26.561,86.692
				c0,0.001-0.001,0.001-0.001,0.002l-0.006,0.022l-60.295,196.798l-26.05,85.023c-13.296,43.264,10.999,89.115,54.262,102.411
				l15.791,4.853l204.675,62.9l154.325,47.427l54.558,16.767l461.021,141.679l159.04,48.876
				c43.265,13.296,89.115-10.999,102.411-54.262l7.437-24.274l105.476-344.262c2.239-7.284,3.41-14.642,3.607-21.906v-0.005
				C1745.259,724.614,1722.4,691.043,1686.423,679.987z M857.027,868.089c6.552-1.184,12.973-2.739,19.245-4.642
				c70.684-21.442,122.135-87.11,122.135-164.798c0-42.197-15.179-80.847-40.375-110.792l241.614,74.252l84,25.815
				c-23.802,6.53-45.543,18.038-64.033,33.337c-38.173,31.584-62.495,79.317-62.495,132.731c0,47.594,19.311,90.678,50.523,121.846
				L878.394,874.656L857.027,868.089z M1238.56,777.416c-6.476,7.667-12,16.163-16.381,25.298h-0.001l-27.936-13.399
				c8.177-17.048,19.473-32.287,33.15-45.001c2.665-2.478,5.419-4.862,8.26-7.142l19.395,24.164
				C1249.046,766.153,1243.524,771.541,1238.56,777.416z M1255.412,946.939c13.731,10.933,29.911,18.872,47.584,22.868
				l-6.834,30.222c-22.328-5.047-42.763-15.083-60.053-28.851L1255.412,946.939z M1210.571,854.234
				c0.039,18.493,4.278,35.901,11.813,51.461l0.002,0l-27.886,13.511c-9.515-19.629-14.871-41.696-14.913-64.911L1210.571,854.234z
				 M1280.018,900.326c-11.383-12.106-18.359-28.405-18.359-46.334c0-2.374,0.124-4.72,0.362-7.031
				c3.516-34.057,32.3-60.618,67.287-60.618c37.361,0,67.649,30.288,67.649,67.65c0,37.361-30.288,67.649-67.649,67.649
				C1309.876,921.642,1292.357,913.447,1280.018,900.326z M1329.308,704.27c2.77,0,5.524,0.076,8.26,0.225
				c8.39,0.457,16.608,1.605,24.587,3.392l-0.873,3.896l-5.898,26.34c-8.38-1.876-17.098-2.869-26.076-2.869
				c-9.226,0.001-18.178,1.048-26.77,3.027h-0.001l-6.952-30.195C1306.434,705.588,1317.732,704.269,1329.308,704.27z M1384,959.414
				c6.878-3.577,13.365-7.809,19.379-12.615v0h0.001c0,0,0,0-0.001,0L1422.728,971c-16.119,12.886-34.986,22.52-55.582,27.885
				c-1.461,0.381-2.933,0.742-4.412,1.079l-6.891-30.209C1365.757,967.495,1375.199,963.991,1384,959.414z M1403.015,760.895h-0.001
				l19.252-24.279c4.538,3.598,8.859,7.456,12.947,11.547c11.682,11.69,21.442,25.303,28.768,40.341l-27.855,13.568
				c-0.783-1.609-1.605-3.198-2.458-4.765C1425.989,783.205,1415.524,770.812,1403.015,760.895z M1448.044,853.509l30.985-0.123
				v0.606c0.004,23.222-5.309,45.302-14.786,64.95l-27.91-13.457c7.505-15.575,11.71-32.994,11.714-51.494L1448.044,853.509z
				 M944.951,698.166l30.985-0.123v0.606c0.004,23.221-5.309,45.302-14.786,64.951l-27.91-13.457
				c7.505-15.575,11.71-32.994,11.714-51.494L944.951,698.166z M933.033,646.729c-7.832-16.082-19.212-30.157-33.112-41.178
				l19.252-24.278c17.505,13.881,31.826,31.586,41.715,51.887L933.033,646.729z M719.086,647.372l-0.001,0l-27.936-13.399
				c9.77-20.369,23.99-38.16,41.409-52.142l19.395,24.163C738.121,617.096,726.823,631.237,719.086,647.372z M752.319,791.596
				c13.732,10.932,29.912,18.872,47.584,22.869l0.001,0l-6.833,30.222c-22.329-5.048-42.763-15.083-60.052-28.85L752.319,791.596z
				 M707.478,698.891c0.039,18.493,4.278,35.901,11.813,51.462v0l-27.883,13.511c-9.516-19.629-14.872-41.696-14.915-64.911
				L707.478,698.891z M813.774,765.156c-31.419-5.841-55.208-33.395-55.208-66.507c0-26.24,14.94-48.991,36.778-60.21
				c9.255-4.756,19.75-7.44,30.871-7.44c2.46,0,4.888,0.133,7.281,0.389c33.938,3.631,60.368,32.359,60.368,67.261
				c0,26.386-15.108,49.244-37.143,60.396c-9.166,4.639-19.531,7.254-30.505,7.254C821.965,766.299,817.807,765.906,813.774,765.156
				z M818.98,549.102c2.399-0.114,4.811-0.175,7.235-0.175c11.263,0,22.265,1.248,32.848,3.617l-1.026,4.583l-5.747,25.653
				c-8.379-1.876-17.097-2.869-26.075-2.869c-0.616,0-1.229,0.006-1.842,0.015c-8.576,0.13-16.909,1.165-24.928,3.012l0,0
				l-4.372-18.98l-2.582-11.214C801.069,550.768,809.927,549.534,818.98,549.102z M866.291,810.455
				c12.412-4.45,23.873-10.909,33.995-18.999v-0.001h0.001c0,0,0,0-0.001,0.001l19.348,24.202
				c-14.004,11.195-30.082,19.937-47.564,25.557c-4.07,1.308-8.215,2.447-12.427,3.408l-6.894-30.208
				C857.372,813.36,861.891,812.032,866.291,810.455z"/>
		</g>
		<g>
			<path style="fill:#B30062;" d="M1563.725,754.007l-0.001-0.01c-3.806-21.301-19.097-39.765-41.23-46.543L757.325,472.28
				c-22.122-6.752-45.161-0.091-60.282,15.373c0,0,0,0.001-0.002,0.001c-4.539,4.642-8.365,10.075-11.239,16.179
				c-1.239,2.53-2.273,5.216-3.151,8.004l-34.839,113.72L603.486,770.25l-3.15,10.328c-9.709,31.553,8.004,64.965,39.557,74.673
				l43.566,13.387l153.761,47.248l52.1,16.009l447.728,137.578l68.013,20.9c31.552,9.709,64.964-8.004,74.673-39.557l0.826-2.737
				l46.748-152.567l34.742-113.385c1.498-4.906,2.323-9.915,2.53-14.822C1564.799,762.805,1564.5,758.347,1563.725,754.007z
				 M1210.571,854.234c0.039,18.493,4.278,35.901,11.813,51.461l0.002,0l-27.886,13.511c-9.515-19.629-14.871-41.696-14.913-64.911
				L1210.571,854.234z M1194.242,789.315c8.177-17.048,19.473-32.287,33.15-45.001c2.665-2.478,5.419-4.862,8.26-7.142
				l19.395,24.164c-6,4.816-11.522,10.204-16.486,16.08c-6.476,7.667-12,16.163-16.381,25.298h-0.001L1194.242,789.315z
				 M1296.162,1000.029c-22.328-5.047-42.763-15.083-60.053-28.851l19.302-24.239c13.731,10.933,29.911,18.872,47.584,22.868
				L1296.162,1000.029z M1280.018,900.326c-11.383-12.106-18.359-28.405-18.359-46.334c0-2.374,0.124-4.72,0.362-7.031
				c3.516-34.057,32.3-60.618,67.287-60.618c37.361,0,67.649,30.288,67.649,67.65c0,37.361-30.288,67.649-67.649,67.649
				C1309.876,921.642,1292.357,913.447,1280.018,900.326z M1422.728,971c-16.119,12.886-34.986,22.52-55.582,27.885
				c-1.461,0.381-2.933,0.742-4.412,1.079l-6.891-30.209c9.915-2.262,19.357-5.766,28.158-10.343
				c6.878-3.577,13.365-7.809,19.379-12.615v0h0.001c0,0,0,0-0.001,0L1422.728,971z M1403.015,760.895h-0.001l19.252-24.279
				c4.538,3.598,8.859,7.456,12.947,11.547c11.682,11.69,21.442,25.303,28.768,40.341l-27.855,13.568
				c-0.783-1.609-1.605-3.198-2.458-4.765C1425.989,783.205,1415.524,770.812,1403.015,760.895z M1362.155,707.888l-0.873,3.896
				l-5.898,26.34c-8.38-1.876-17.098-2.869-26.076-2.869c-9.226,0.001-18.178,1.048-26.77,3.027h-0.001l-6.952-30.195
				c10.849-2.499,22.147-3.817,33.723-3.816c2.77,0,5.524,0.076,8.26,0.225C1345.958,704.952,1354.176,706.1,1362.155,707.888z
				 M1448.044,853.509l30.985-0.123v0.606c0.004,23.222-5.309,45.302-14.786,64.95l-27.91-13.457
				c7.505-15.575,11.71-32.994,11.714-51.494L1448.044,853.509z M944.951,698.166l30.985-0.123v0.606
				c0.004,23.221-5.309,45.302-14.786,64.951l-27.91-13.457c7.505-15.575,11.71-32.994,11.714-51.494L944.951,698.166z
				 M933.033,646.729c-7.832-16.082-19.212-30.157-33.112-41.178l19.252-24.278c17.505,13.881,31.826,31.586,41.715,51.887
				L933.033,646.729z M676.493,698.953l30.985-0.062c0.039,18.493,4.278,35.901,11.813,51.462v0l-27.883,13.511
				C681.892,744.235,676.536,722.168,676.493,698.953z M732.558,581.831l19.395,24.163c-13.832,11.102-25.13,25.243-32.867,41.379
				l-0.001,0l-27.936-13.399C700.918,613.604,715.138,595.813,732.558,581.831z M752.319,791.596
				c13.732,10.932,29.912,18.872,47.584,22.869l0.001,0l-6.833,30.222c-22.329-5.048-42.763-15.083-60.052-28.85L752.319,791.596z
				 M758.566,698.649c0-26.24,14.94-48.991,36.778-60.21c9.255-4.756,19.75-7.44,30.871-7.44c2.46,0,4.888,0.133,7.281,0.389
				c33.938,3.631,60.368,32.359,60.368,67.261c0,26.386-15.108,49.244-37.143,60.396c-9.166,4.639-19.531,7.254-30.505,7.254
				c-4.25,0-8.408-0.394-12.441-1.143C782.355,759.315,758.566,731.761,758.566,698.649z M795.073,563.958l-2.582-11.214
				c8.578-1.976,17.436-3.211,26.489-3.642c2.399-0.114,4.811-0.175,7.235-0.175c11.263,0,22.265,1.248,32.848,3.617l-1.026,4.583
				l-5.747,25.653c-8.379-1.876-17.097-2.869-26.075-2.869c-0.616,0-1.229,0.006-1.842,0.015c-8.576,0.13-16.909,1.165-24.928,3.012
				l0,0L795.073,563.958z M866.291,810.455c12.412-4.45,23.873-10.909,33.995-18.999v-0.001h0.001c0,0,0,0-0.001,0.001
				l19.348,24.202c-14.004,11.195-30.082,19.937-47.564,25.557c-4.07,1.308-8.215,2.447-12.427,3.408l-6.894-30.208
				C857.372,813.36,861.891,812.032,866.291,810.455z M878.394,874.656l-21.368-6.567c6.552-1.184,12.973-2.739,19.245-4.642
				c70.684-21.442,122.135-87.11,122.135-164.798c0-42.197-15.179-80.847-40.375-110.792l241.614,74.252l84,25.815
				c-23.802,6.53-45.543,18.038-64.033,33.337c-38.173,31.584-62.495,79.317-62.495,132.731c0,47.594,19.311,90.678,50.523,121.846
				L878.394,874.656z"/>
		</g>
		<path style="fill:#FFFFFF;" d="M815.118,526.811c-11.821,0.752-23.317,2.698-34.37,5.716
			c-66.706,18.215-117.269,75.532-125.533,145.793c-0.784,6.668-1.19,13.452-1.19,20.33c0,24.197,4.994,47.226,14.003,68.118
			c26.396,61.219,87.287,104.073,158.189,104.073c1.272,0,2.542-0.017,3.807-0.044c9.197-0.199,18.217-1.119,27.004-2.706
			c6.552-1.184,12.973-2.739,19.245-4.642c70.684-21.442,122.135-87.11,122.135-164.798c0-42.197-15.179-80.847-40.375-110.792
			c-9.565-11.369-20.576-21.482-32.746-30.059c-0.004-0.002-0.008-0.005-0.011-0.007c-28.015-19.739-62.182-31.333-99.059-31.333
			c-0.94,0-1.877,0.01-2.815,0.025c-0.003,0-0.006,0-0.01,0C820.616,526.529,817.857,526.636,815.118,526.811z M833.496,631.388
			c33.938,3.631,60.368,32.359,60.368,67.261c0,26.386-15.108,49.244-37.143,60.396c-9.166,4.639-19.531,7.254-30.505,7.254
			c-4.25,0-8.408-0.394-12.441-1.143c-31.419-5.841-55.208-33.395-55.208-66.507c0-26.24,14.94-48.991,36.778-60.21
			c9.255-4.756,19.75-7.44,30.871-7.44C828.675,631,831.103,631.132,833.496,631.388z M752.319,791.596
			c13.732,10.932,29.912,18.872,47.584,22.869l0.001,0l-6.833,30.222c-22.329-5.048-42.763-15.083-60.052-28.85L752.319,791.596z
			 M732.558,581.831l19.395,24.163c-13.832,11.102-25.13,25.243-32.867,41.379l-0.001,0l-27.936-13.399
			C700.918,613.604,715.138,595.813,732.558,581.831z M719.292,750.353l-27.883,13.511c-9.516-19.629-14.872-41.696-14.915-64.911
			l30.985-0.062C707.517,717.384,711.756,734.792,719.292,750.353L719.292,750.353z M872.07,841.214
			c-4.07,1.308-8.215,2.447-12.427,3.408l-6.894-30.208c4.623-1.055,9.141-2.382,13.542-3.959
			c12.412-4.45,23.873-10.909,33.995-18.999v-0.001h0.001c0,0,0,0-0.001,0.001l19.348,24.202
			C905.63,826.853,889.552,835.595,872.07,841.214z M975.935,698.649c0.004,23.221-5.309,45.302-14.786,64.951l-27.91-13.457
			c7.505-15.575,11.71-32.994,11.714-51.494l-0.002-0.483l30.985-0.123V698.649z M960.888,633.161l-27.855,13.569
			c-7.832-16.082-19.212-30.157-33.112-41.178v0v0l19.252-24.278C936.678,595.154,950.999,612.86,960.888,633.161z M852.29,582.781
			c-8.379-1.876-17.097-2.869-26.075-2.869c-0.616,0-1.229,0.006-1.842,0.015c-8.576,0.13-16.909,1.165-24.928,3.012l0,0
			l-4.372-18.98l-2.582-11.214c8.578-1.976,17.436-3.211,26.489-3.642c2.399-0.114,4.811-0.175,7.235-0.175
			c11.263,0,22.265,1.248,32.848,3.617l-1.026,4.583L852.29,582.781z"/>
		<path style="fill:#FFFFFF;" d="M1157.117,853.992c0,47.594,19.311,90.678,50.523,121.846
			c29.638,29.595,70.008,48.443,114.768,50.207c2.29,0.09,4.589,0.137,6.9,0.137c95.099,0,172.191-77.093,172.191-172.19
			c0-5.118-0.224-10.183-0.661-15.186c-3.624-41.469-21.945-78.725-49.727-106.526c-7.545-7.55-15.788-14.4-24.622-20.45
			c-0.006-0.004-0.012-0.009-0.019-0.013c-27.655-18.936-61.113-30.015-97.161-30.015c-0.165,0-0.332,0.003-0.497,0.003
			c-0.008,0-0.014,0-0.022,0c-15.626,0.046-30.76,2.174-45.144,6.119c-23.802,6.53-45.543,18.038-64.033,33.337
			C1181.439,752.845,1157.117,800.578,1157.117,853.992z M1194.5,919.206c-9.515-19.629-14.871-41.696-14.913-64.911l30.985-0.061
			c0.039,18.493,4.278,35.901,11.813,51.461l0.002,0L1194.5,919.206z M1236.109,971.178l19.302-24.239
			c13.731,10.933,29.911,18.872,47.584,22.868l-6.834,30.222C1273.834,994.982,1253.4,984.946,1236.109,971.178z M1367.145,998.886
			c-1.461,0.381-2.933,0.742-4.412,1.079l-6.891-30.209c9.915-2.262,19.357-5.766,28.158-10.343
			c6.878-3.577,13.365-7.809,19.379-12.615v0h0.001c0,0,0,0-0.001,0L1422.728,971
			C1406.608,983.886,1387.741,993.521,1367.145,998.886z M1479.028,853.992c0.004,23.222-5.309,45.302-14.786,64.95l-27.91-13.457
			c7.505-15.575,11.71-32.994,11.714-51.494l-0.001-0.483l30.985-0.123V853.992z M1463.981,788.504l-27.855,13.568
			c-0.783-1.609-1.605-3.198-2.458-4.765c-7.678-14.102-18.144-26.495-30.652-36.412h-0.001l19.252-24.279
			c4.538,3.598,8.859,7.456,12.947,11.547C1446.895,759.854,1456.655,773.466,1463.981,788.504z M1362.155,707.888l-0.873,3.896
			l-5.898,26.34c-8.38-1.876-17.098-2.869-26.076-2.869c-9.226,0.001-18.178,1.048-26.77,3.027h-0.001l-6.952-30.195
			c10.849-2.499,22.147-3.817,33.723-3.816c2.77,0,5.524,0.076,8.26,0.225C1345.958,704.952,1354.176,706.1,1362.155,707.888z
			 M1329.308,786.342c37.361,0,67.649,30.288,67.649,67.65c0,37.361-30.288,67.649-67.649,67.649
			c-19.433,0-36.951-8.194-49.29-21.315c-11.383-12.106-18.359-28.405-18.359-46.334c0-2.374,0.124-4.72,0.362-7.031
			C1265.537,812.904,1294.32,786.342,1329.308,786.342z M1235.651,737.173l19.395,24.164c-6,4.816-11.522,10.204-16.486,16.08
			c-6.476,7.667-12,16.163-16.381,25.298h-0.001l-27.936-13.399c8.177-17.048,19.473-32.287,33.15-45.001
			C1230.056,741.837,1232.81,739.453,1235.651,737.173z"/>
		<path style="fill:#D50075;" d="M1471.173,1296.048c-0.494-2.898-2.561-5.25-5.372-6.109l-60.701-18.547l-478.14-146.093
			l-57.174-17.469l-155.097-47.39l-195.474-59.726L479.6,988.61c-2.813-0.859-5.898-0.038-7.91,2.105l-82.717,88.069l-67.363,71.723
			c-2.93,3.119-2.775,8.021,0.343,10.95c3.119,2.929,8.021,2.775,10.951-0.344l-0.001-0.001l60.585-64.506l86.194-91.772
			l43.905,13.415l194.036,59.287l155.232,47.431l57.503,17.569l480.827,146.915l45.517,13.908l37.162,218.41
			c0.717,4.217,4.718,7.055,8.935,6.337c4.217-0.717,7.055-4.718,6.338-8.935L1471.173,1296.048z"/>
		<path style="fill:#933F90;" d="M640.858,1071.703l-37.342-11.212c-14.882-4.469-30.567,3.973-35.035,18.854
			c-4.468,14.881,3.973,30.568,18.855,35.036l37.34,11.212c14.882,4.469,30.567-3.973,35.036-18.854
			C664.181,1091.857,655.739,1076.171,640.858,1071.703z"/>
		<path style="fill:#933F90;" d="M1321.883,1277.841l-37.341-11.212c-14.881-4.468-30.567,3.973-35.035,18.854
			c-4.469,14.881,3.972,30.568,18.855,35.036l37.341,11.212c14.881,4.469,30.568-3.973,35.036-18.854
			C1345.207,1297.996,1336.766,1282.309,1321.883,1277.841z"/>
		<path style="fill:#FFFFFF;" d="M411.901,1458.392c0.003,0.004,0.004,0.009,0.005,0.013l90.038,27.667
			c-0.001-0.002-0.001-0.005-0.003-0.009c-17.691-57.983-34.741-116.162-51.107-174.537c-7.325-26.128-14.52-52.287-21.597-78.476
			l-109.662-33.701C348.1,1286.544,378.74,1372.99,411.901,1458.392z"/>
		<path style="fill:#FFFFFF;" d="M817.361,1582.993c-17.661-78.386-34.295-157.004-49.91-235.829
			c-0.715-3.611-1.427-7.223-2.138-10.834l-171.284-52.638c23.955,85.071,49.225,169.776,76.035,254.036v0.003l21.946,6.743
			l41.693,12.812l7.644,2.349l72.38,22.241L817.361,1582.993z"/>
		<path style="fill:#FFFFFF;" d="M977.587,1632.228L977.587,1632.228l53.237,16.359c-16.081-81.901-32.359-163.764-48.678-245.62
			l-59.205-18.195C940.018,1467.49,958.185,1549.989,977.587,1632.228z"/>
	</g>
</g>
</svg>
